<?xml version="1.0" standalone="no"?>
<!DOCTYPE svg PUBLIC "-//W3C//DTD SVG 20010904//EN"
 "http://www.w3.org/TR/2001/REC-SVG-20010904/DTD/svg10.dtd">
<svg version="1.0" xmlns="http://www.w3.org/2000/svg"
 width="512.000000pt" height="512.000000pt" viewBox="0 0 512.000000 512.000000"
 preserveAspectRatio="xMidYMid meet">

<g transform="translate(0.000000,512.000000) scale(0.100000,-0.100000)"
fill="#000000" stroke="none">
<path d="M545 5102 c-65 -22 -109 -54 -146 -105 -63 -87 -59 85 -59 -2471 l0
-2331 24 -50 c28 -60 66 -97 126 -124 45 -20 57 -21 1676 -21 1776 0 1672 -3
1749 55 19 15 45 50 60 78 l25 51 0 454 c0 276 -4 460 -10 472 -13 25 -67 42
-90 30 -50 -27 -50 -24 -50 -492 l0 -437 -24 -28 -24 -28 -883 -3 c-999 -3
-993 -3 -1134 67 -44 22 -103 60 -131 85 -64 56 -138 163 -163 236 l-19 55
1000 5 c975 5 1000 5 1014 24 23 33 18 82 -12 105 -27 21 -30 21 -1025 21
l-999 0 0 81 c0 110 -15 154 -70 209 -57 57 -99 70 -232 70 -125 0 -182 10
-278 47 -152 59 -281 192 -342 353 l-33 85 -3 1298 -2 1297 225 0 226 0 24 25
c31 30 33 77 5 105 -19 19 -33 20 -250 20 l-230 0 0 252 c0 234 1 255 21 294
15 31 32 48 63 63 42 21 48 21 1597 21 l1555 0 44 -22 c77 -39 80 -53 80 -350
l0 -258 -1310 0 -1309 0 -21 -22 c-27 -30 -26 -73 5 -103 l24 -25 1306 0 1305
0 0 -212 0 -213 -116 -200 c-63 -110 -150 -261 -191 -335 -42 -74 -77 -137
-79 -139 -2 -2 -14 10 -28 25 l-24 29 -1246 3 c-1358 2 -1307 4 -1322 -52 -10
-40 4 -74 36 -91 26 -13 175 -15 1279 -13 l1249 3 -23 -40 c-13 -22 -71 -121
-128 -220 l-104 -180 -1129 -5 c-891 -4 -1134 -8 -1151 -18 -26 -15 -38 -51
-29 -88 14 -56 -19 -54 1145 -54 l1069 0 -126 -220 -127 -220 -131 0 c-118 0
-134 -2 -158 -21 -33 -26 -36 -79 -6 -109 17 -17 33 -20 110 -20 50 0 90 -2
90 -4 0 -2 -7 -21 -16 -42 -11 -27 -94 -380 -94 -401 0 -2 -385 -3 -855 -3
l-856 0 -24 -25 c-32 -31 -33 -74 -2 -103 l23 -22 837 0 c821 0 837 0 837 -19
0 -11 -7 -50 -16 -88 -20 -86 -20 -143 0 -181 36 -70 119 -106 192 -82 24 8
106 75 235 191 l198 179 146 0 c132 0 147 2 165 20 30 30 27 83 -6 109 -20 16
-41 21 -87 21 -57 0 -59 1 -44 18 18 20 106 167 344 580 l158 274 5 -414 c3
-227 9 -420 13 -429 20 -39 81 -45 119 -11 17 14 18 54 18 571 l0 556 378 655
c208 360 384 670 390 689 30 85 5 187 -60 249 -52 49 -322 200 -373 208 -107
16 -192 -34 -262 -151 -75 -126 -67 -162 -73 330 l-5 440 -27 47 c-15 25 -48
64 -72 85 -89 78 41 73 -1725 73 -1470 -1 -1579 -2 -1626 -18z m3657 -1352
l27 -16 -587 -1017 c-323 -559 -590 -1017 -595 -1017 -14 0 -156 85 -154 92 1
4 265 464 587 1022 l585 1014 55 -31 c30 -17 67 -38 82 -47z m-1085 -2273 c40
-23 73 -44 73 -47 0 -3 -58 -58 -130 -123 l-129 -117 -44 33 c-25 19 -65 43
-91 53 -29 12 -46 25 -46 36 0 15 55 280 66 320 4 14 23 6 117 -49 62 -36 145
-84 184 -106z m-2308 -463 c92 -37 190 -54 311 -54 60 0 120 -5 133 -11 38
-17 47 -50 47 -169 0 -181 40 -318 130 -449 56 -82 56 -82 -100 0 -278 146
-517 384 -660 660 -80 156 -80 154 5 97 40 -27 101 -60 134 -74z m-203 -221
c156 -244 386 -456 657 -603 l72 -40 -382 0 c-275 0 -389 3 -408 12 -54 24
-55 35 -55 450 l0 383 40 -72 c21 -40 56 -98 76 -130z"/>
<path d="M862 3717 c-27 -29 -28 -67 -3 -98 l19 -24 1249 -3 c686 -1 1258 0
1271 3 32 8 62 41 62 69 0 13 -9 35 -21 50 l-20 26 -1268 0 -1268 0 -21 -23z"/>
<path d="M883 1940 c-46 -19 -57 -83 -20 -118 l23 -22 681 0 682 0 20 26 c28
36 26 60 -8 95 l-29 29 -664 -1 c-365 0 -673 -4 -685 -9z"/>
</g>
</svg>
